<svg width="10" height="17" viewBox="0 0 10 17" fill="none" xmlns="http://www.w3.org/2000/svg">
<path d="M8.5 0.814697H1.5C0.672848 0.814697 0 1.45831 0 2.24952V14.6846C0 15.4758 0.672848 16.1195 1.5 16.1195H8.5C9.32715 16.1195 10 15.4758 10 14.6846V2.24952C10 1.45831 9.32715 0.814697 8.5 0.814697ZM1.5 1.77124H8.5C8.77588 1.77124 9 1.98563 9 2.24952V12.2933H1V2.24952C1 1.98563 1.22412 1.77124 1.5 1.77124ZM8.5 15.1629H1.5C1.22412 15.1629 1 14.9485 1 14.6846V13.2498H9V14.6846C9 14.9485 8.77588 15.1629 8.5 15.1629Z" fill="black"/>
<path d="M2.35355 13.8682C2.54882 14.055 2.54882 14.3579 2.35355 14.5448C2.15828 14.7316 1.84172 14.7316 1.64645 14.5448C1.45118 14.3579 1.45118 14.055 1.64645 13.8682C1.84172 13.6813 2.15828 13.6813 2.35355 13.8682Z" fill="black"/>
</svg>
